<svg xmlns="http://www.w3.org/2000/svg" width="512" height="512" viewBox="0 0 512 512">
  <!-- Hintergrund -->
  <rect width="512" height="512" fill="#888" />

  <!-- Horizontaler Graustufen-Verlauf oben -->
  <defs>
    <linearGradient id="grad-horizontal" x1="0%" y1="0%" x2="100%" y2="0%">
      <stop offset="0%" style="stop-color:#000; stop-opacity:1" />
      <stop offset="100%" style="stop-color:#fff; stop-opacity:1" />
    </linearGradient>
  </defs>
  <rect x="0" y="0" width="512" height="64" fill="url(#grad-horizontal)" />

  <!-- Vertikaler Graustufen-Verlauf links -->
  <defs>
    <linearGradient id="grad-vertical" x1="0%" y1="0%" x2="0%" y2="100%">
      <stop offset="0%" style="stop-color:#000; stop-opacity:1" />
      <stop offset="100%" style="stop-color:#fff; stop-opacity:1" />
    </linearGradient>
  </defs>
  <rect x="0" y="64" width="64" height="384" fill="url(#grad-vertical)" />

  <!-- Radialer Verlauf in der Mitte -->
  <defs>
    <radialGradient id="grad-radial" cx="50%" cy="50%" r="50%">
      <stop offset="0%" style="stop-color:#fff; stop-opacity:1" />
      <stop offset="100%" style="stop-color:#000; stop-opacity:1" />
    </radialGradient>
  </defs>
  <circle cx="256" cy="256" r="128" fill="url(#grad-radial)" />

  <!-- Graustufenbalken unten -->
  <g transform="translate(0,448)">
    <rect width="64" height="64" x="0" fill="#000"/>
    <rect width="64" height="64" x="64" fill="#222"/>
    <rect width="64" height="64" x="128" fill="#444"/>
    <rect width="64" height="64" x="192" fill="#666"/>
    <rect width="64" height="64" x="256" fill="#888"/>
    <rect width="64" height="64" x="320" fill="#aaa"/>
    <rect width="64" height="64" x="384" fill="#ccc"/>
    <rect width="64" height="64" x="448" fill="#fff"/>
  </g>

  <!-- Fadenkreuz zur Zentrierung -->
  <line x1="256" y1="0" x2="256" y2="512" stroke="#000" stroke-width="1"/>
  <line x1="0" y1="256" x2="512" y2="256" stroke="#000" stroke-width="1"/>

  <!-- Schachbrettmuster in der Mitte -->
  <g transform="translate(220,220)">
    <rect width="16" height="16" x="0" y="0" fill="#000"/>
    <rect width="16" height="16" x="16" y="0" fill="#fff"/>
    <rect width="16" height="16" x="0" y="16" fill="#fff"/>
    <rect width="16" height="16" x="16" y="16" fill="#000"/>
  </g>
</svg>

